<?xml version="1.0" encoding="utf-8"?>
<!-- Generator: Adobe Illustrator 26.0.2, SVG Export Plug-In . SVG Version: 6.00 Build 0)  -->
<svg version="1.1" id="Capa_1" xmlns="http://www.w3.org/2000/svg" xmlns:xlink="http://www.w3.org/1999/xlink" x="0px" y="0px"
	 viewBox="0 0 72.4 72.4" style="enable-background:new 0 0 72.4 72.4;" xml:space="preserve">
<polygon points="70.2,14.9 58.1,14.9 58.1,2.7 50.3,2.7 50.3,14.8 38.2,14.8 38.2,22.5 50.3,22.5 50.3,34.8 58.1,34.8 58.1,22.6 
	70.2,22.6 "/>
<path d="M59.8,25.1v12.2l0,0c-0.6,12.5-10.9,22.5-23.6,22.5c-13,0-23.6-10.6-23.6-23.6c0-12.8,10.3-23.3,23.1-23.6l0,0h12.1v-5
	c-3.6-1.5-7.5-2.3-11.6-2.3C19.1,5.3,5.3,19.1,5.3,36.2c0,17.1,13.8,30.9,30.9,30.9c17.1,0,30.9-13.8,30.9-30.9
	c0-3.9-0.7-7.7-2-11.1H59.8z"/>
<path d="M47.8,37.3V25H35.7v-5.8C25.9,19.5,18.3,28,19.4,38c0.9,7.8,7.2,14.1,15,14.9c9.7,1,18.1-6.3,18.7-15.6H47.8z"/>
</svg>
