<?xml version="1.0" encoding="utf-8"?>
<!-- Generator: Adobe Illustrator 26.0.2, SVG Export Plug-In . SVG Version: 6.00 Build 0)  -->
<svg version="1.1" id="Capa_1" xmlns="http://www.w3.org/2000/svg" xmlns:xlink="http://www.w3.org/1999/xlink" x="0px" y="0px"
	 viewBox="0 0 512 512" style="enable-background:new 0 0 512 512;" xml:space="preserve">
<path d="M312.1,92.9L186.8,5.2l0,0c-6.4-4.9-15.1-6.5-23.3-3.6c-7.3,2.7-12.6,8.4-14.8,15.3l-0.1,0l-39.6,147.7
	c-3.9,14.7,3.5,29.4,16.6,32.9c4.6,1.2,9.3,0.9,13.6-0.7c8-2.9,14.7-10.1,17.2-19.6l19.1-71.1l142,390.1
	c4.6,12.6,18.7,19.2,31.4,14.7l0,0c12.7-4.6,19.3-18.7,14.7-31.4l-142-390l62.3,43.6c8.1,5.6,17.8,6.8,25.8,3.9
	c4.3-1.6,8.1-4.3,10.8-8.2C328.3,117.7,324.5,101.6,312.1,92.9z"/>
</svg>
