<?xml version="1.0" encoding="utf-8"?>
<!-- Generator: Adobe Illustrator 26.0.3, SVG Export Plug-In . SVG Version: 6.00 Build 0)  -->
<svg version="1.1" id="Capa_1" xmlns="http://www.w3.org/2000/svg" xmlns:xlink="http://www.w3.org/1999/xlink" x="0px" y="0px"
	 viewBox="0 0 72.4 72.4" style="enable-background:new 0 0 72.4 72.4;" xml:space="preserve">
<path d="M69.9,22.6c-1.7-4.4-4.4-8.3-7.8-12.1c-3.3-3.4-7.3-6-12.1-7.9c-4.2-1.8-8.8-2.6-13.7-2.6c-4.9,0-9.4,0.9-13.6,2.4l0,0
	c-4.4,1.8-8.4,4.5-12.1,7.9c-3.5,3.5-6.1,7.5-7.8,12.1c-1.8,4.4-2.7,9-2.7,13.8S1,45.8,2.7,49.9c1.7,4.4,4.4,8.3,7.8,12.1
	c3.5,3.5,7.5,6.1,12.1,7.9c4.2,1.8,8.8,2.5,13.6,2.5c4.7,0,9.3-0.9,13.6-2.5c4.4-1.8,8.4-4.5,12.1-7.9c3.5-3.5,6.1-7.5,7.8-12.1
	c1.8-4.2,2.5-8.8,2.5-13.6C72.5,31.6,71.6,26.9,69.9,22.6z M15.6,41.6l-6,9.4l0,0c-1.5-1-3-2.1-4.5-3.6C3,41.9,2.6,35.6,3.9,29
	l0.3-0.5c0.6-1.1,1.1-2,1.9-3.1c0.3-0.3,0.5-0.6,0.7-0.9l0,0l7.5,4.4C14.4,33.4,14.8,37.8,15.6,41.6z M49.4,6.7
	c0.1-0.2,0.1-0.4,0.1-0.6c4.3,1.8,7.6,4.2,10.3,6.9l0,0c2.3,2.3,4.5,5.2,6,8.2c-1.5-0.9-3.3-1.8-5.1-2.5c-0.2,0-0.3-0.1-0.5-0.2
	c-0.2-0.1-0.3-0.1-0.5-0.2L49.4,6.7z M27.9,6.2c1.3,0.7,2.8,1.5,4,2.1l-4,11.7c-0.4,0.1-9,4.2-12,6.1l-7.4-4.5c0-0.1,0-0.2,0.1-0.4
	c0.4-1.2,1.6-4.2,1.6-4.2c0.3-0.7,1.3-2.7,1.5-3.2c0.4-0.4,0.8-0.8,1.1-1.2c3.9-3.8,8.2-6.4,12.7-7.9C25.9,5.1,26.6,5.5,27.9,6.2z
	 M56.9,20.4c-0.2,1-0.4,1.9-0.9,2.8l0,0c-0.8,1.8-1.5,3.8-2.2,5.7l-15.1,1.5c-0.1-0.1-0.3-0.3-0.4-0.5c-1.4-1.5-4.5-5-6.3-7.1
	l-1.3-1.4L35,8.8h0.1c0.2,0,0.4-0.1,0.4-0.1c2.3-0.2,4.8-0.4,7-0.7c1.4-0.1,2.6-0.1,4.1,0l10.4,11.8C57,20.1,56.9,20.3,56.9,20.4z
	 M17.8,44.3L17.8,44.3c4.3,1.2,8.4,1.8,12.1,2.3c0,0,0.1,0,0.2,0h0.1l7.3,12.5c-1.3,1.7-3.6,4.9-4.2,5.8l-15.6-2.6
	c-1.7-2-3.4-4.5-4.8-7c-0.1-0.2-0.2-0.4-0.3-0.6c-0.2-0.4-0.5-0.8-0.6-1.2L17.8,44.3z M38.8,33.8l15.4-1.7c0.5,0.8,5.6,9.9,5.9,10.3
	l-7.5,13.9c-3.8,0.7-8,1.1-12.1,1.1l-7.4-12.8C33.7,43.5,38.4,34.5,38.8,33.8z M33,68.4c0.4,0.2,1.4,0.7,2.2,1.2
	c-4.4-0.1-8.6-1.1-12.7-2.8L33,68.4z M69.2,40.3c-0.9,7.3-4.2,14.1-9.4,19.4c-1.1,1.1-2.1,1.9-3.4,2.8c-0.2-1.6-0.6-3.1-1-4.6
	l7.8-14.4C65.4,42.7,67.5,41.5,69.2,40.3z"/>
</svg>
