<?xml version="1.0" encoding="utf-8"?>
<!-- Generator: Adobe Illustrator 26.0.3, SVG Export Plug-In . SVG Version: 6.00 Build 0)  -->
<svg version="1.1" id="Capa_1" xmlns="http://www.w3.org/2000/svg" xmlns:xlink="http://www.w3.org/1999/xlink" x="0px" y="0px"
	 viewBox="0 0 72.4 72.4" style="enable-background:new 0 0 72.4 72.4;" xml:space="preserve">
<path d="M64.4,15.8c-0.2,0-0.3-0.1-0.5-0.2c-0.2-0.1-0.3-0.1-0.5-0.2L51.3,2c0.1-0.2,0.1-0.4,0.1-0.6c-4.6-2-9.8-3.1-15.2-3.1
	c-4.2,0-8.3,0.7-12.1,2c0.5,0.3,1.3,0.6,2.3,1.3C27.9,2.3,29.8,3.2,31,4l-4.6,13.5c-0.4,0.1-10.3,4.8-13.8,7.1L4,19.5
	c0-0.1,0-0.2,0.1-0.4c0.4-1.4,1.8-4.8,1.8-4.8c0.2-0.4,0.6-1.5,1-2.3c-3.6,4.3-6.3,9.3-7.7,15c0.6-1,1.2-2.1,2-3.1
	c0.3-0.3,0.5-0.7,0.8-1l8.7,5c0,5.1,0.4,10.3,1.4,14.7L5.3,53.2c-1.6-1-3.1-2.3-4.7-3.7c3.9,10.2,11.9,18.3,22,22.1l9.8,1.6
	c0.3,0.2,0.9,0.5,1.7,0.8c0.7,0,1.4,0.1,2.1,0.1c8.7,0,16.8-2.9,23.2-7.9c-0.2-1.7-0.6-3.4-1-4.9l9-16.7c2.4-0.9,4.6-2.3,6.5-3.6
	c0.2-1.6,0.3-3.3,0.3-4.9c0-6.4-1.6-12.4-4.3-17.6C68.2,17.6,66.3,16.7,64.4,15.8z M34.6,4.5h0.1c0.2,0,0.4-0.1,0.4-0.1
	c2.7-0.2,5.5-0.4,8.1-0.8c1.6-0.1,3-0.1,4.7,0l12,13.6c0.1,0.3,0,0.5,0,0.7c-0.2,1.2-0.4,2.3-1,3.4c-0.9,2.2-1.7,4.3-2.6,6.6
	l-17.4,1.7c-0.1-0.1-0.3-0.3-0.4-0.5c-1.6-1.7-5.1-5.8-7.3-8.2l-1.3-1.7L34.6,4.5z M32.7,69.5l-18-3.3c-2-2.4-3.9-5.1-5.5-8.1
	c-0.1-0.2-0.2-0.4-0.3-0.7C8.7,57,8.4,56.4,8.2,56l6.6-10.5c4.9,1.4,9.8,2.2,14,2.7c0,0,0.1,0,0.2,0H29l8.5,14.4
	C36.1,64.6,33.4,68.3,32.7,69.5z M55,59.4c-4.3,0.8-9.1,1.3-14,1.3l-8.6-14.9c0.7-1.2,6.2-11.6,6.6-12.5l17.7-2
	c0.5,0.9,6.5,11.4,6.8,11.9L55,59.4z"/>
</svg>
