<?xml version="1.0" encoding="utf-8"?>
<!-- Generator: Adobe Illustrator 26.0.2, SVG Export Plug-In . SVG Version: 6.00 Build 0)  -->
<svg version="1.1" id="Capa_1" xmlns="http://www.w3.org/2000/svg" xmlns:xlink="http://www.w3.org/1999/xlink" x="0px" y="0px"
	 viewBox="0 0 512 512" style="enable-background:new 0 0 512 512;" xml:space="preserve">
<g>
	<rect x="284.7" y="381.9" transform="matrix(0.9397 -0.342 0.342 0.9397 -118.8263 129.9786)" width="48.9" height="40.1"/>
	<rect x="309.1" y="439.7" transform="matrix(0.9397 -0.342 0.342 0.9397 -140.2766 142.3629)" width="48.9" height="58.6"/>
	<rect x="242.2" y="265.2" transform="matrix(0.9397 -0.342 0.342 0.9397 -81.4621 108.4146)" width="48.8" height="40.1"/>
	<rect x="263.5" y="323.5" transform="matrix(0.9397 -0.342 0.342 0.9397 -100.1423 119.1924)" width="48.8" height="40.1"/>
	<rect x="178.5" y="90" transform="matrix(0.9397 -0.342 0.342 0.9397 -25.4057 76.0485)" width="48.9" height="40.1"/>
	<rect x="154.1" y="13.7" transform="matrix(0.9397 -0.342 0.342 0.9397 -3.9306 63.6496)" width="48.8" height="58.6"/>
	<rect x="221" y="206.8" transform="matrix(0.9397 -0.342 0.342 0.9397 -62.774 97.6205)" width="48.9" height="40.1"/>
	<rect x="199.8" y="148.4" transform="matrix(0.9397 -0.342 0.342 0.9397 -44.0898 86.8345)" width="48.9" height="40.1"/>
</g>
</svg>
