<?xml version="1.0" encoding="utf-8"?>
<!-- Generator: Adobe Illustrator 26.0.2, SVG Export Plug-In . SVG Version: 6.00 Build 0)  -->
<svg version="1.1" id="Capa_1" xmlns="http://www.w3.org/2000/svg" xmlns:xlink="http://www.w3.org/1999/xlink" x="0px" y="0px"
	 viewBox="0 0 72.4 72.4" style="enable-background:new 0 0 72.4 72.4;" xml:space="preserve">
<path d="M69.7,4.2L69.7,4.2c0-1.1-0.9-2.1-2.1-2.1h-14c-1.1,0-2.1,0.9-2.1,2.1v0c0,1.1,0.9,2.1,2.1,2.1h2.9c1.1,0,2.1,0.9,2.1,2.1
	v55.8c0,1.1-0.9,2.1-2.1,2.1h-2.9c-1.1,0-2.1,0.9-2.1,2.1v0c0,1.1,0.9,2.1,2.1,2.1h14c1.1,0,2.1-0.9,2.1-2.1v0
	c0-1.1-0.9-2.1-2.1-2.1h-2.9c-1.1,0-2.1-0.9-2.1-2.1V8.3c0-1.1,0.9-2.1,2.1-2.1h2.9C68.8,6.3,69.7,5.3,69.7,4.2z"/>
<g>
	<path d="M48.5,43.5v8.8H42v12.3H31V52.3H8.3v-9.8L29.3,7.7H42v35.8H48.5z M16.6,43.5H31V18.8L16.6,43.5z"/>
</g>
</svg>
