<?xml version="1.0" encoding="utf-8"?>
<!-- Generator: Adobe Illustrator 26.0.3, SVG Export Plug-In . SVG Version: 6.00 Build 0)  -->
<svg version="1.1" id="Capa_1" xmlns="http://www.w3.org/2000/svg" xmlns:xlink="http://www.w3.org/1999/xlink" x="0px" y="0px"
	 viewBox="0 0 72.4 72.4" style="enable-background:new 0 0 72.4 72.4;" xml:space="preserve">
<g>
	<path d="M68.2,13.8c0,2.5-1.2,4.9-3.6,6.6c-3.9,2.9-8.1,5.5-12.1,8.1c-0.3,0.2-0.6,0.4-0.9,0.6c-1.2,0.8-1.3,1.9-0.3,3
		c1.2,1.3,2.5,2.5,3.7,3.7c1.9,2,1.9,4.2,0,6.2C48.7,48.3,42.4,54.7,36,61c-2,2-4.2,2-6.2,0.1c-1-1-2.2-1.9-2.7-3.4
		c-0.1-0.2-0.2-0.3-0.4-0.4c-3.4-1.9-5.6-5.1-8.3-7.7c-0.4-0.4-0.7-1-0.7-1.6c0-1.1-0.4-1.5-1.5-1.5c-0.5,0-1-0.2-1.4-0.5
		c-1.5-1.2-3-2.6-4.1-4.2c-1.1-1.6-0.8-3.5,0.6-5c2.1-2.1,4.2-4.2,6.2-6.3c4.3-4.3,8.5-8.5,12.8-12.8c2.2-2.2,4.4-2.2,6.6,0
		c1.1,1.1,2.2,2.2,3.3,3.3c1.3,1.3,2.4,1.2,3.4-0.4c2.8-4.3,5.4-8.6,8.5-12.7c3.2-4.2,9.1-4.8,13-1.3C67.2,8.3,68.2,10.6,68.2,13.8z
		 M33,58.1c0.2-0.2,0.5-0.4,0.7-0.6c4-4,8-8.1,12.1-12.1c0.6-0.6,0.7-1,0-1.6c-5.7-5.7-11.4-11.4-17.1-17.1c-0.7-0.7-1-0.6-1.6,0
		c-3.6,3.7-7.3,7.3-11,11c-2,2-1.9,1.9,0,3.9c0.6,0.6,1,0.6,1.6,0.1c3.5-2.4,7-4.8,10.5-7.1c0.3-0.2,0.6-0.4,0.9-0.5
		c0.2-0.1,0.5-0.2,0.7,0c0.2,0.2,0.2,0.5,0.1,0.7c-0.2,0.3-0.4,0.6-0.5,0.9c-2.4,3.5-4.7,7-7.1,10.5c-0.4,0.6-0.5,1.1,0.1,1.6
		c1.6,1.5,3.2,3.1,4.7,4.7c0.5,0.5,0.9,0.6,1.6,0.2c1.1-0.6,2.2-1.1,3.3-1.6c0.3-0.2,0.7-0.4,1-0.1c0.4,0.4,0.2,0.8,0,1.1
		c-0.5,1.2-1.1,2.4-1.6,3.6C31.1,56.5,32.3,58.2,33,58.1z M49.6,41.5c0.1-0.1,0.3-0.2,0.5-0.4c0.6-0.6,1.1-1.1,1.7-1.7
		c0.5-0.5,0.5-0.8,0-1.3c-1-1-2-2-3-3c-3.1-3.2-2.7-7.1,1-9.6c3.6-2.4,7.2-4.8,10.9-7.2c0.8-0.5,1.5-1,2.1-1.7c1.7-1.6,2-4,0.8-6
		C62.4,8.9,60,8,57.9,8.6c-1.7,0.5-2.7,1.9-3.6,3.3c-2.5,3.8-5,7.6-7.5,11.4c-2.1,3.2-6.1,3.6-8.9,1c-0.7-0.6-1.3-1.3-2-2
		c-2.2-2.2-2.2-2.2-4.3,0.1c-0.4,0.5-0.5,0.8,0,1.3c5.8,5.8,11.6,11.6,17.5,17.4C49,41.3,49.2,41.5,49.6,41.5z"/>
	<path d="M58.7,11.5c1.3,0,2.4,1,2.4,2.4c0,1.3-1,2.3-2.3,2.4c-1.3,0-2.4-1-2.4-2.3C56.3,12.6,57.3,11.5,58.7,11.5z"/>
</g>
<path d="M60,28.4c0.8,2.5,1.3,5.1,1.3,7.8c0,11.9-8.2,21.8-19.3,24.4c-1.1,1.1-2.1,2.1-3.2,3.2c-3.5,3.5-8.1,3.5-11.6,0.1l-0.4-0.4
	c-0.9-0.8-2-1.8-2.7-3.3c-2.4-1.6-4.3-3.6-6-5.4c-0.8-0.8-1.5-1.6-2.3-2.4c-0.7-0.7-1.2-1.5-1.6-2.4c-0.6-0.2-1.2-0.6-1.7-1
	c-2.1-1.7-3.7-3.3-4.9-5c-2.2-3.1-1.8-7.1,1-9.9c1.1-1.1,2.1-2.1,3.2-3.2c2.5-11.2,12.5-19.7,24.4-19.7c2.8,0,5.5,0.5,8,1.3
	c1.4-2.2,2.9-4.4,4.5-6.5c-3.8-1.6-8.1-2.5-12.5-2.5c-18,0-32.7,14.6-32.7,32.7s14.6,32.7,32.7,32.7s32.7-14.6,32.7-32.7
	c0-4.4-0.9-8.5-2.4-12.3C64.3,25.5,62.2,27,60,28.4z"/>
</svg>
