<?xml version="1.0" encoding="utf-8"?>
<!-- Generator: Adobe Illustrator 26.0.2, SVG Export Plug-In . SVG Version: 6.00 Build 0)  -->
<svg version="1.1" id="Capa_1" xmlns="http://www.w3.org/2000/svg" xmlns:xlink="http://www.w3.org/1999/xlink" x="0px" y="0px"
	 viewBox="0 0 72.4 72.4" style="enable-background:new 0 0 72.4 72.4;" xml:space="preserve">
<g>
	<g>
		<path d="M40.1,53h-21l-3.9,11.7H2.7L23,7.7h13.4l20.2,56.9H43.7L40.1,53z M36.7,43.2l-7.1-22.4l-7.3,22.4H36.7z"/>
	</g>
	<path d="M69.7,4.2L69.7,4.2c0-1.1-0.9-2.1-2.1-2.1h-14c-1.1,0-2.1,0.9-2.1,2.1v0c0,1.1,0.9,2.1,2.1,2.1h2.9c1.1,0,2.1,0.9,2.1,2.1
		v55.8c0,1.1-0.9,2.1-2.1,2.1h-2.9c-1.1,0-2.1,0.9-2.1,2.1v0c0,1.1,0.9,2.1,2.1,2.1h14c1.1,0,2.1-0.9,2.1-2.1v0
		c0-1.1-0.9-2.1-2.1-2.1h-2.9c-1.1,0-2.1-0.9-2.1-2.1V8.3c0-1.1,0.9-2.1,2.1-2.1h2.9C68.8,6.3,69.7,5.3,69.7,4.2z"/>
</g>
</svg>
