<?xml version="1.0" encoding="utf-8"?>
<!-- Generator: Adobe Illustrator 26.0.2, SVG Export Plug-In . SVG Version: 6.00 Build 0)  -->
<svg version="1.1" id="Capa_1" xmlns="http://www.w3.org/2000/svg" xmlns:xlink="http://www.w3.org/1999/xlink" x="0px" y="0px"
	 viewBox="0 0 512 512" style="enable-background:new 0 0 512 512;" xml:space="preserve">
<g>
	<g>
		<g>
			<path d="M240.2,101.6l-65.3,23.8c-4.9,1.8-10.3-0.7-12.1-5.7s0.7-10.3,5.7-12.1l65.3-23.8c2.5-0.9,5-0.7,7.2,0.3
				c2.2,1,4,2.9,4.9,5.3C247.6,94.4,245.1,99.8,240.2,101.6z"/>
		</g>
	</g>
	<g>
		<g>
			<path d="M442.2,421.9l-216,78.6c-4.9,1.8-10.3-0.7-12.1-5.7L103.5,191.4l-24.9-68.4c-4.3-12-3.7-25,1.7-36.6s15-20.4,27-24.8
				L251.2,9.2c12.4-4.5,25.5-3.6,36.6,1.6s20.2,14.6,24.8,27l24.9,68.4l110.3,303.5c0.8,2.3,0.8,4.9-0.3,7.2S444.5,421,442.2,421.9z
				 M294.7,44.4c-5.4-15-22.1-22.7-37.1-17.3L113.7,79.5c-7.2,2.6-13.1,8-16.4,15s-3.6,14.8-1,22.2l21.7,59.5l198.2-72.1L294.7,44.4
				z M228.6,479.5l198.2-72.1l-104-285.7"/>
		</g>
	</g>
</g>
</svg>
