<?xml version="1.0" encoding="utf-8"?>
<!-- Generator: Adobe Illustrator 25.0.0, SVG Export Plug-In . SVG Version: 6.00 Build 0)  -->
<svg version="1.1" id="Capa_1" xmlns="http://www.w3.org/2000/svg" xmlns:xlink="http://www.w3.org/1999/xlink" x="0px" y="0px"
	 viewBox="0 0 512 512" style="enable-background:new 0 0 512 512;" xml:space="preserve">
<g>
	<g>
		<path d="M306.5,206.3L306.5,206.3c-9.2-9.2-9.2-24.2,0-33.4L462.1,17.2c9.2-9.2,24.2-9.2,33.4,0l0,0c9.2,9.2,9.2,24.2,0,33.4
			L339.9,206.3C330.6,215.5,315.8,215.5,306.5,206.3z"/>
		<path d="M478.9,10.3H310.1c-13,0-23.6,10.6-23.6,23.6l0,0c0,13,10.6,23.6,23.6,23.6h168.7"/>
		<path d="M455.1,33.9v168.7c0,13,10.6,23.6,23.6,23.6l0,0c13,0,23.6-10.6,23.6-23.6V33.9"/>
	</g>
	<g>
		<path d="M205.5,206.3L205.5,206.3c-9.2,9.2-24.2,9.2-33.4,0L16.4,50.6c-9.2-9.2-9.2-24.2,0-33.4l0,0c9.2-9.2,24.2-9.2,33.4,0
			l155.7,155.7C214.8,182.1,214.8,197,205.5,206.3z"/>
		<path d="M9.5,33.9v168.7c0,13,10.6,23.6,23.6,23.6l0,0c13,0,23.6-10.6,23.6-23.6V33.9"/>
		<path d="M33.1,57.6h168.7c13,0,23.6-10.6,23.6-23.6l0,0c0-13-10.6-23.6-23.6-23.6H33.1"/>
	</g>
	<g>
		<path d="M205.6,305.7L205.6,305.7c9.2,9.2,9.2,24.2,0,33.4L49.8,494.8c-9.2,9.2-24.2,9.2-33.4,0l0,0c-9.2-9.2-9.2-24.2,0-33.4
			l155.7-155.7C181.4,296.5,196.2,296.5,205.6,305.7z"/>
		<path d="M33.1,501.7h168.7c13,0,23.6-10.6,23.6-23.6l0,0c0-13-10.6-23.6-23.6-23.6H33.1"/>
		<path d="M56.8,478.1V309.4c0-13-10.6-23.6-23.6-23.6l0,0c-13,0-23.6,10.6-23.6,23.6v168.7"/>
	</g>
	<g>
		<path d="M306.4,305.7L306.4,305.7c9.2-9.2,24.2-9.2,33.4,0l155.7,155.7c9.2,9.2,9.2,24.2,0,33.4l0,0c-9.2,9.2-24.2,9.2-33.4,0
			L306.4,339.1C297.2,329.9,297.2,315,306.4,305.7z"/>
		<path d="M502.5,478.1l0-168.7c0-13-10.6-23.6-23.6-23.6l0,0c-13,0-23.6,10.6-23.6,23.6l0,168.7"/>
		<path d="M478.9,454.4l-168.7,0c-13,0-23.6,10.6-23.6,23.6l0,0c0,13,10.6,23.6,23.6,23.6l168.7,0"/>
	</g>
</g>
</svg>
