<?xml version="1.0" encoding="utf-8"?>
<!-- Generator: Adobe Illustrator 25.0.0, SVG Export Plug-In . SVG Version: 6.00 Build 0)  -->
<svg version="1.1" id="Capa_1" xmlns="http://www.w3.org/2000/svg" xmlns:xlink="http://www.w3.org/1999/xlink" x="0px" y="0px"
	 viewBox="0 0 512 512" style="enable-background:new 0 0 512 512;" xml:space="preserve">
<style type="text/css">
	.st0{fill:none;stroke:#000000;stroke-width:43.5122;stroke-miterlimit:10;}
</style>
<path d="M367.1,189.9H144.8c-26.4,0-48,21.6-48,48v222.4c0,26.4,21.6,48,48,48h222.4c26.4,0,48-21.6,47.9-48.1V237.9
	C415.1,211.5,393.5,189.9,367.1,189.9z M273.3,380.4v64.2h-34.6v-64.2c-11-6.1-18.5-17.8-18.5-31.3c0-19.8,16-35.8,35.8-35.8
	s35.8,16,35.8,35.8C291.8,362.6,284.3,374.3,273.3,380.4z"/>
<path class="st0" d="M141.5,216.7v-71.9c0-63.2,51.3-114.5,114.5-114.5s114.5,51.3,114.5,114.5v71.9"/>
</svg>
