<?xml version="1.0" encoding="utf-8"?>
<!-- Generator: Adobe Illustrator 26.0.2, SVG Export Plug-In . SVG Version: 6.00 Build 0)  -->
<svg version="1.1" id="Capa_1" xmlns="http://www.w3.org/2000/svg" xmlns:xlink="http://www.w3.org/1999/xlink" x="0px" y="0px"
	 viewBox="0 0 512 512" style="enable-background:new 0 0 512 512;" xml:space="preserve">
<g>
	<path d="M253.2,78.1L166.7,5.5c-3.7-3.1-8.7-4-13.2-2.3c-3.4,1.2-6.1,3.7-7.6,6.9c-0.5,1.1-0.8,2.2-1.1,3.3l-19.7,111.5l0,0.3
		c-0.1,0.5-0.1,0.9-0.1,1.4l0,0.2c0,0.4,0,0.9,0,1.4l0,0.4c0,0.4,0.1,0.8,0.2,1.2c0,0.2,0.1,0.3,0.1,0.4c0.1,0.6,0.3,1.1,0.5,1.5
		l116.3,319.6l0.2,0.7l0.2,0.3l11.1,30.4c7.8,21.4,31.5,32.4,52.8,24.6l0,0l54.1-19.7c0,0,0,0,0,0c10.3-3.8,18.6-11.3,23.3-21.3
		c4.7-10,5.1-21.2,1.4-31.5l-11.3-31.1L257.4,83.9C256.5,81.7,255.1,79.6,253.2,78.1z M353.2,425.6l6.7,18.5c1.3,3.6,1.1,7.5-0.5,11
		c-1.6,3.5-4.5,6.1-8.1,7.4c0,0,0,0,0,0l-54.1,19.7c-7.5,2.7-15.7-1.1-18.5-8.6l-6.7-18.5l40.4-14.7l0.3-0.1l0.2-0.1L353.2,425.6z
		 M344,400.4L304,415l-17.1-171.4L344,400.4z M155.7,106.7l8.3-73.2l54.4,50.4L155.7,106.7z M217.7,305.9l-62.1-170.7l44.2-16.1
		L217.7,305.9z"/>
</g>
</svg>
