<?xml version="1.0" encoding="utf-8"?>
<!-- Generator: Adobe Illustrator 25.0.0, SVG Export Plug-In . SVG Version: 6.00 Build 0)  -->
<svg version="1.1" id="Capa_1" xmlns="http://www.w3.org/2000/svg" xmlns:xlink="http://www.w3.org/1999/xlink" x="0px" y="0px"
	 viewBox="0 0 512 512" style="enable-background:new 0 0 512 512;" xml:space="preserve">
<style type="text/css">
	.st0{fill:none;stroke:#000000;stroke-width:24.0226;stroke-miterlimit:10;}
	.st1{fill:none;stroke:#000000;stroke-width:30.2419;stroke-miterlimit:10;}
	.st2{fill:none;stroke:#000000;stroke-width:33.3476;stroke-miterlimit:10;}
	.st3{fill:none;stroke:#000000;stroke-width:33.4612;stroke-miterlimit:10;}
	.st4{stroke:#000000;stroke-width:24.0226;stroke-miterlimit:10;}
</style>
<g id="Layer_1_1_">
	<g>
		<rect x="25.3" y="20.7" class="st0" width="461.4" height="469.2"/>
		<polyline class="st0" points="486.7,106.9 411.3,106.9 411.3,402.2 486.7,402.2 		"/>
		<polyline class="st0" points="486.7,188.2 461.5,188.2 461.5,322.4 486.7,322.4 		"/>
		<ellipse class="st1" cx="256" cy="255.3" rx="66.8" ry="67.4"/>
		<path class="st2" d="M411.3,307.6c-19.7-12-32.6-31.2-32.6-53s12.8-41,32.6-53"/>
		<polyline class="st0" points="25.3,106.9 100.7,106.9 100.7,402.2 25.3,402.2 		"/>
		<polyline class="st0" points="25.3,187.9 50.5,187.9 50.5,322.1 25.3,322.1 		"/>
		<path class="st3" d="M100.7,307.6c19.9-12,32.8-31.2,32.8-53s-12.9-41-32.8-53"/>
		<line class="st0" x1="256" y1="20.7" x2="256" y2="489.9"/>
		<polyline class="st0" points="486.7,240.9 492.8,240.9 492.8,269.6 486.7,269.6 		"/>
		<polyline class="st0" points="25.3,240.9 19.2,240.9 19.2,269.6 25.3,269.6 		"/>
		<path class="st0" d="M483,489.9c0-3.3,1.7-5.9,3.7-5.9"/>
		<path class="st0" d="M486.7,26.5c-2.1,0-3.7-2.7-3.7-5.9"/>
		<path class="st0" d="M29,20.7c0,3.3-1.7,5.9-3.7,5.9"/>
		<path class="st0" d="M25.3,484c2.1,0,3.7,2.7,3.7,5.9"/>
		<ellipse class="st4" cx="256" cy="255.3" rx="1.4" ry="2.3"/>
	</g>
</g>
</svg>
