<?xml version="1.0" encoding="utf-8"?>
<!-- Generator: Adobe Illustrator 26.0.3, SVG Export Plug-In . SVG Version: 6.00 Build 0)  -->
<svg version="1.1" id="Capa_1" xmlns="http://www.w3.org/2000/svg" xmlns:xlink="http://www.w3.org/1999/xlink" x="0px" y="0px"
	 viewBox="0 0 72.4 72.4" style="enable-background:new 0 0 72.4 72.4;" xml:space="preserve">
<path d="M47.8,37.3V25H35.7v-5.8C25.9,19.5,18.3,28,19.4,38c0.9,7.8,7.2,14.1,15,14.9c9.7,1,18.1-6.3,18.7-15.6
	C53.1,37.3,47.8,37.3,47.8,37.3z"/>
<circle cx="36.2" cy="36.2" r="17"/>
<path d="M36.2,5.3C19.1,5.3,5.3,19.1,5.3,36.2s13.8,30.9,30.9,30.9s30.9-13.8,30.9-30.9S53.3,5.3,36.2,5.3z M36.2,59.9
	c-13.1,0-23.7-10.6-23.7-23.7s10.6-23.7,23.7-23.7s23.7,10.6,23.7,23.7S49.3,59.9,36.2,59.9z"/>
</svg>
