<?xml version="1.0" encoding="utf-8"?>
<!-- Generator: Adobe Illustrator 25.0.0, SVG Export Plug-In . SVG Version: 6.00 Build 0)  -->
<svg version="1.1" id="Capa_1" xmlns="http://www.w3.org/2000/svg" xmlns:xlink="http://www.w3.org/1999/xlink" x="0px" y="0px"
	 viewBox="0 0 512 512" style="enable-background:new 0 0 512 512;" xml:space="preserve">
<g>
	<path d="M177.5,413.1c23.6,0,38,9.4,43.1,28.1c0.7,8.9,1.2,13.4,1.7,13.4l-1.7,2.7l-0.7,4c-4.2,24.3-20.1,40.8-47.5,49.5
		c-5.1,0.9-9.2,1.3-12.4,1.3c-19.2,0-33.2-11.6-42.1-34.8c0.7-7.1,0.4-10.7-0.7-10.7c12.7-30.3,24.3-45.5,34.8-45.5
		C152.5,418.9,161,416.2,177.5,413.1z M278.4,0l2.3,1.3h17.4c28.3,2,53.4,14,75.2,36.1c17.4,33.6,24.2,61.3,20.4,82.9l-2.3,12
		c-7.4,42.3-46.3,94.5-117,156.4c-25.4,32.3-39.7,57.3-42.8,74.9l0.3,6.7c-2.9,2.7-9.9,4.5-21.1,5.3l-6.3-1.3
		c-14.9,0.9-26.2,1.3-33.8,1.3c-10.9-0.9-16.6-1.3-17-1.3c-1.8,0.9-3.7,1.3-5.7,1.3c-4.5,0-5.9-4.5-4.3-13.4
		c5.8-20.5,19.6-48.1,41.4-82.9c16.5-22.1,39.5-44.3,69.2-66.8c32.8-23.4,51.6-49.2,56.5-77.5l2-10.7c1.6-28.5-10.2-42.8-35.4-42.8
		h-8c-22.5,0-42.7,23.2-60.5,69.5l-6,34.8c-0.2,1.8-3.1,3.1-8.7,4c-43.7,0-64.8-3.6-63.5-10.7c0.7-9.1,1.4-16.3,2.3-21.4l0.7-4
		c9.1-51.9,34-94.2,74.5-127C234.3,10.2,257.7,1.3,278.4,0z"/>
</g>
</svg>
