<?xml version="1.0" encoding="utf-8"?>
<!-- Generator: Adobe Illustrator 26.0.2, SVG Export Plug-In . SVG Version: 6.00 Build 0)  -->
<svg version="1.1" id="Capa_1" xmlns="http://www.w3.org/2000/svg" xmlns:xlink="http://www.w3.org/1999/xlink" x="0px" y="0px"
	 viewBox="0 0 512 512" style="enable-background:new 0 0 512 512;" xml:space="preserve">
<g>
	<path d="M372.5,184.9l-23.2,28.4c-10.6,12.9-8.8,32.1,4.3,42.7l0,0c12.9,10.6,32.1,8.8,42.7-4.3l70.3-85.9
		c7.1-8.6,6.7-21.1-0.8-29.3l-72.5-79.2C382,45,362.8,44.1,350.5,55.4l0,0c-12.4,11.3-13.2,30.5-1.9,42.8l22.8,24.8"/>
	<path d="M203.5,464.5h153.1c15.9,0,28.8-12.9,28.8-28.8v0c0-15.9-12.9-28.8-28.8-28.8H203.5c-58.3,0-105.7-51.2-105.7-114.2
		s47.4-114.2,105.7-114.2h181.8v-57.5H203.5c-90,0-163.2,77-163.2,171.7C40.3,387.5,113.5,464.5,203.5,464.5z"/>
</g>
</svg>
