<?xml version="1.0" encoding="utf-8"?>
<!-- Generator: Adobe Illustrator 25.0.0, SVG Export Plug-In . SVG Version: 6.00 Build 0)  -->
<svg version="1.1" id="Capa_1" xmlns="http://www.w3.org/2000/svg" xmlns:xlink="http://www.w3.org/1999/xlink" x="0px" y="0px"
	 viewBox="0 0 512 512" style="enable-background:new 0 0 512 512;" xml:space="preserve">
<g>
	<g>
		<path d="M482.5,30.2L482.5,30.2c9.2,9.2,9.2,24.2,0,33.4L326.9,219.3c-9.2,9.2-24.2,9.2-33.4,0l0,0c-9.2-9.2-9.2-24.2,0-33.4
			L449.1,30.2C458.4,21,473.2,21,482.5,30.2z"/>
		<path d="M310.1,226.2h168.7c13,0,23.6-10.6,23.6-23.6l0,0c0-13-10.6-23.6-23.6-23.6H310.1"/>
		<path d="M333.9,202.6V33.9c0-13-10.6-23.6-23.6-23.6l0,0c-13,0-23.6,10.6-23.6,23.6v168.7"/>
	</g>
	<g>
		<path d="M29.4,30.2L29.4,30.2c9.2-9.2,24.2-9.2,33.4,0l155.7,155.7c9.2,9.2,9.2,24.2,0,33.4l0,0c-9.2,9.2-24.2,9.2-33.4,0
			L29.4,63.6C20.2,54.4,20.2,39.5,29.4,30.2z"/>
		<path d="M225.5,202.6l0-168.7c0-13-10.6-23.6-23.6-23.6l0,0c-13,0-23.6,10.6-23.6,23.6l0,168.7"/>
		<path d="M201.9,178.9l-168.7,0c-13,0-23.6,10.6-23.6,23.6l0,0c0,13,10.6,23.6,23.6,23.6l168.7,0"/>
	</g>
	<g>
		<path d="M29.4,481.8L29.4,481.8c-9.2-9.2-9.2-24.2,0-33.4l155.7-155.7c9.2-9.2,24.2-9.2,33.4,0l0,0c9.2,9.2,9.2,24.2,0,33.4
			L62.8,481.8C53.6,491,38.7,491,29.4,481.8z"/>
		<path d="M201.9,285.8l-168.7,0c-13,0-23.6,10.6-23.6,23.6l0,0c0,13,10.6,23.6,23.6,23.6l168.7,0"/>
		<path d="M178.2,309.4l0,168.7c0,13,10.6,23.6,23.6,23.6l0,0c13,0,23.6-10.6,23.6-23.6l0-168.7"/>
	</g>
	<g>
		<path d="M482.6,481.8L482.6,481.8c-9.2,9.2-24.2,9.2-33.4,0L293.5,326.1c-9.2-9.2-9.2-24.2,0-33.4l0,0c9.2-9.2,24.2-9.2,33.4,0
			l155.7,155.7C491.8,457.6,491.8,472.5,482.6,481.8z"/>
		<path d="M286.5,309.4l0,168.7c0,13,10.6,23.6,23.6,23.6l0,0c13,0,23.6-10.6,23.6-23.6l0-168.7"/>
		<path d="M310.1,333.1l168.7,0c13,0,23.6-10.6,23.6-23.6l0,0c0-13-10.6-23.6-23.6-23.6l-168.7,0"/>
	</g>
</g>
</svg>
