<?xml version="1.0" encoding="utf-8"?>
<!-- Generator: Adobe Illustrator 25.0.0, SVG Export Plug-In . SVG Version: 6.00 Build 0)  -->
<svg version="1.1" id="Capa_1" xmlns="http://www.w3.org/2000/svg" xmlns:xlink="http://www.w3.org/1999/xlink" x="0px" y="0px"
	 viewBox="0 0 512 512" style="enable-background:new 0 0 512 512;" xml:space="preserve">
<style type="text/css">
	.st0{fill:#010101;}
	.st1{fill:#0C0907;}
</style>
<g>
	<path class="st0" d="M147.1,144.7c-0.4,0-0.8-0.1-1.2-0.1c-0.8-2.1-2.7-1.3-4.1-1.3c-25.3-0.1-50.5-0.1-75.8,0
		c-3,0-4.1-0.7-4.1-3.9c0.1-29.6,0.1-59.2,0-88.9c0-3.2,1-3.9,4-3.9c80.5,0.1,160.9,0.1,241.4,0.1c2,0,4.2-0.2,6.2,0.7
		c-5.3,9.7-9.5,19.7-11.4,30.5c-4.1,22.7-0.5,44,11,64c0.5,0.7,1.1,1.4,1,2.9c-17.9,0-35.8,0-53.8,0c-3.1-0.4-2.4,1.9-2.4,3.5
		c0,109.7,0,219.3,0.1,328.9c0,2.8-0.7,3.4-3.4,3.4c-33.4-0.1-66.9-0.1-100.3-0.1c-5,0-5,0-5-5.1c0-108.5,0-217.1,0-325.6
		c0-1.1,0-2.2,0-3.3C149.2,145.1,148.5,144.6,147.1,144.7z"/>
	<path class="st0" d="M385.7,161.2c-36.4,0.1-65.9-29.3-66-65.8c-0.1-36.5,29.4-66.2,65.9-66.3c36.5-0.1,66.2,29.5,66.2,66
		C451.8,131.8,422.4,161.1,385.7,161.2z"/>
	<path class="st1" d="M147.1,144.7c1.4-0.1,2.1,0.5,2.1,1.9c0,1.1,0,2.2,0,3.3c0,108.5,0,217.1,0,325.6c0,5.1,0,5.1,5,5.1
		c33.4,0,66.9,0,100.3,0.1c2.8,0,3.4-0.7,3.4-3.4c-0.1-109.7-0.1-219.3-0.1-328.9c0-1.7-0.6-3.9,2.4-3.5c-0.1,1.3-0.2,2.7-0.2,4
		c0,109.4,0,218.8,0,328.1c0,1.5,0,2.9,0,4.4c0,1.1-0.4,1.8-1.6,1.4c-0.8-2-2.7-1.3-4.1-1.3c-32.4,0-64.7,0-97.1,0
		c-1.1,0-2.4-0.5-4.2,1.3c35,0,69.2,0,103.3,0c-1.2,0.1-2.4,0.2-3.7,0.2c-34,0-68,0-101.9,0.1c-3,0-3.6-0.7-3.6-3.7
		c0.1-110.2,0.1-220.3,0.1-330.6C147.4,147.4,147.2,146,147.1,144.7z"/>
	<path class="st1" d="M313.6,47.4c-2-0.8-4.1-0.7-6.2-0.7c-80.5,0-160.9,0-241.4-0.1c-3,0-4.1,0.7-4,3.9c0.1,29.6,0.1,59.2,0,88.9
		c0,3.2,1.1,3.9,4.1,3.9c25.3-0.1,50.5-0.1,75.8,0c1.4,0,3.2-0.8,4.1,1.3c-1.1,0-2.2,0-3.3,0c-1.2-0.9-2.6-0.6-3.9-0.6
		c-24.2,0-48.5,0-72.7,0c-1.3,0-2.7-0.3-3.9,0.6c-2.5,0.6-1.8-1.4-1.8-2.5c0-11.4,0-22.8,0-34.2c0-19.6,0-39.1-0.1-58.7
		c0-2.6,0.7-3.3,3.2-3.3C146.1,46,228.8,46,311.5,46C312.4,46,314.4,44.8,313.6,47.4z M60.8,142c0.1,0,0.2,0.1,0.3,0.1
		c0-31,0-61.9,0-92.9c-0.1,0-0.2,0-0.3,0C60.8,80.1,60.8,111.1,60.8,142z"/>
	<path class="st0" d="M256.5,482.7c-34.2,0-68.3,0-103.3,0c1.8-1.8,3.1-1.3,4.2-1.3c32.4,0,64.7,0,97.1,0c1.4,0,3.2-0.8,4.1,1.3
		C257.9,482.7,257.2,482.7,256.5,482.7z"/>
	<path class="st0" d="M62,144.6c1.2-0.9,2.6-0.6,3.9-0.6c24.2,0,48.5,0,72.7,0c1.3,0,2.7-0.3,3.9,0.6c-11.6,0.1-23.1,0.2-34.7,0.1
		C92.6,144.7,77.3,144.6,62,144.6z"/>
	<path class="st0" d="M60.8,142c0-30.9,0-61.8,0-92.8c0.1,0,0.2,0,0.3,0c0,31,0,61.9,0,92.9C61,142.1,60.9,142.1,60.8,142z"/>
</g>
</svg>
