<?xml version="1.0" encoding="utf-8"?>
<!-- Generator: Adobe Illustrator 25.0.0, SVG Export Plug-In . SVG Version: 6.00 Build 0)  -->
<svg version="1.1" id="Capa_1" xmlns="http://www.w3.org/2000/svg" xmlns:xlink="http://www.w3.org/1999/xlink" x="0px" y="0px"
	 viewBox="0 0 512 512" style="enable-background:new 0 0 512 512;" xml:space="preserve">
<g>
	<path d="M468,116.3H44c-3.9,0-7.1-3.2-7.1-7.1V74.9c0-12.7,10.3-22.9,23-22.9h392.3c12.7,0,22.9,10.3,22.9,22.9v34.3
		C475.1,113.1,471.9,116.3,468,116.3z"/>
	<path style="fill:none;stroke:#000000;stroke-width:17.9896;stroke-miterlimit:10;" d="M199.6,59.3V25.8c0-7.9,6.5-14.4,14.4-14.4h84c7.9,0,14.4,6.5,14.4,14.4v33.4"/>
	<path d="M426.5,139h-341c-10,0-17.4,9.2-15.4,18.9l41.3,310.4c5.1,24.3,26.5,41.6,51.3,41.6l186.6,0.8c24.8,0,46.2-17.4,51.3-41.6
		L441.9,158C444,148.2,436.5,139,426.5,139z M201.1,454.7c0,7.9-6.5,14.4-14.4,14.4h-9.6c-7.9,0-14.4-6.5-14.4-14.4V194.3
		c0-7.9,6.5-14.4,14.4-14.4h9.6c7.9,0,14.4,6.5,14.4,14.4V454.7z M275.2,454.7c0,7.9-6.5,14.4-14.4,14.4h-9.6
		c-7.9,0-14.4-6.5-14.4-14.4V194.3c0-7.9,6.5-14.4,14.4-14.4h9.6c7.9,0,14.4,6.5,14.4,14.4V454.7z M349.3,454.7
		c0,7.9-6.5,14.4-14.4,14.4h-9.6c-7.9,0-14.4-6.5-14.4-14.4V194.3c0-7.9,6.5-14.4,14.4-14.4h9.6c7.9,0,14.4,6.5,14.4,14.4V454.7z"/>
</g>
</svg>
