<?xml version="1.0" encoding="utf-8"?>
<!-- Generator: Adobe Illustrator 26.0.2, SVG Export Plug-In . SVG Version: 6.00 Build 0)  -->
<svg version="1.1" id="Capa_1" xmlns="http://www.w3.org/2000/svg" xmlns:xlink="http://www.w3.org/1999/xlink" x="0px" y="0px"
	 viewBox="0 0 512 512" style="enable-background:new 0 0 512 512;" xml:space="preserve">
<style type="text/css">
	.st0{fill:none;stroke:#000000;stroke-width:17.9896;stroke-miterlimit:10;}
</style>
<g>
	<path d="M443.1,227.8L140.8,100.2c-2.8-1.2-4.1-4.4-2.9-7.2l10.4-24.5c3.8-9.1,14.2-13.2,23.3-9.4l279.7,118.1
		c9.1,3.8,13.2,14.2,9.4,23.2l-10.3,24.5C449.1,227.7,445.8,229,443.1,227.8z"/>
	<path class="st0" d="M268.8,106.4l10.1-23.9c2.4-5.6,9-8.3,14.6-6l59.9,25.3c5.6,2.4,8.3,9,6,14.6l-10.1,23.8"/>
	<path d="M395.8,165.3H131.9c-7.7,0-13.5,7.1-11.9,14.6l32,240.2c3.9,18.8,20.5,32.2,39.7,32.2l144.4,0.6
		c19.2,0,35.8-13.5,39.7-32.2l32-240.7C409.4,172.4,403.6,165.3,395.8,165.3z M208.5,409.6c0,6.1-2,11.1-4.3,11.1h-2.9
		c-2.4,0-4.3-5-4.3-11.1V208.1c0-6.1,2-11.1,4.3-11.1h2.9c2.4,0,4.3,5,4.3,11.1V409.6z M253.2,409.6c0,6.1-2,11.1-4.3,11.1h-2.9
		c-2.4,0-4.3-5-4.3-11.1V208.1c0-6.1,2-11.1,4.3-11.1h2.9c2.4,0,4.3,5,4.3,11.1V409.6z M296.1,409.6c0,6.1-2,11.1-4.3,11.1h-2.9
		c-2.4,0-4.3-5-4.3-11.1V208.1c0-6.1,2-11.1,4.3-11.1h2.9c2.4,0,4.3,5,4.3,11.1V409.6z M340.7,409.6c0,6.1-2,11.1-4.3,11.1h-2.9
		c-2.4,0-4.3-5-4.3-11.1V208.1c0-6.1,2-11.1,4.3-11.1h2.9c2.4,0,4.3,5,4.3,11.1V409.6z"/>
</g>
</svg>
