<?xml version="1.0" encoding="utf-8"?>
<!-- Generator: Adobe Illustrator 25.0.0, SVG Export Plug-In . SVG Version: 6.00 Build 0)  -->
<svg version="1.1" id="Capa_1" xmlns="http://www.w3.org/2000/svg" xmlns:xlink="http://www.w3.org/1999/xlink" x="0px" y="0px"
	 viewBox="0 0 512 512" style="enable-background:new 0 0 512 512;" xml:space="preserve">
<style type="text/css">
	.st0{fill:none;stroke:#000000;stroke-width:35.0901;stroke-miterlimit:10;}
	.st1{fill:none;}
	.st2{fill-rule:evenodd;clip-rule:evenodd;}
	.st3{fill:none;stroke:#000000;stroke-width:35;stroke-miterlimit:10;}
</style>
<path d="M256,203.7c-9.5,0-18.4,2.5-26.1,7L256,256l-45.3-26.1c-4.4,7.7-7,16.6-7,26.1c0,28.9,23.4,52.3,52.3,52.3
	s52.3-23.4,52.3-52.3C308.3,227.1,284.9,203.7,256,203.7z"/>
<path d="M445.1,248.3C385.4,182,320.9,149,253.2,150.4c-17.6,0.3-35.5,3.1-53.2,8.2l19.2,33.5c10.8-6.3,23.4-9.9,36.8-9.9
	c40.7,0,73.8,33.1,73.8,73.8c0,40.7-33.1,73.8-73.8,73.8c-40.7,0-73.8-33.1-73.8-73.8c0-13.4,3.6-25.9,9.9-36.8l-20.4-11.7
	c-8.2,14.3-13,30.8-13,48.5c0,21.3,6.9,41,18.5,57.1c-26.8-12.9-53.2-32.4-79.1-58.4c8-8.1,21.2-20.3,38.3-32.4
	c8.4-5.9,18.2-12.2,29.4-18.1l-29.7-17.1c-5.9,3.6-11.8,7.5-17.6,11.7c-32.3,23-51.3,45.7-52.1,46.7l-8.3,10l8.9,9.5
	c60,64.2,123.8,96.7,189.9,96.7c2.3,0,4.5,0,6.8-0.1c44.4-1.5,89.9-18.2,131.6-48.4c31.3-22.6,49.5-44.7,50.2-45.7l8-9.8
	L445.1,248.3z M377.3,289.8c-11.8,8.5-26.8,17.7-44.2,25.5c12.6-16.4,20.2-37,20.2-59.2c0-21.7-7.1-41.8-19.2-58
	c27.3,13.1,54,33.1,80,60.2C406.3,266.1,393.8,277.9,377.3,289.8z"/>
<path class="st0" d="M90.1,421.9c-91.6-91.6-91.6-240.2,0-331.8s240.2-91.6,331.8,0"/>
<g>
	<g>
		<g>
			<path class="st1" d="M299.6,212.4c6,6.1,10.3,12.6,13.4,19.9c3,7.3,4.7,15.4,4.7,23.7c0,8.2-1.7,16.4-4.7,23.7
				c-3.1,7.3-7.4,13.9-13.4,19.9l244.6,244.6c18.7-18.7,35.7-39.4,50.6-61.6c14.9-22.2,27.6-45.9,37.8-70.7
				c20.5-49.4,31-102.7,31-155.9c0-53.2-10.5-106.5-31-155.9c-10.2-24.7-22.9-48.4-37.8-70.7c-14.9-22.2-31.9-42.9-50.6-61.6
				L299.6,212.4z"/>
		</g>
		<path class="st2" d="M485.5,347.1l-32.2-12.7c-0.2,0.6-0.4,1.2-0.7,1.8l-0.8,1.8l-1.5,3.5l-1.5,3.5c-0.5,1.2-1.1,2.3-1.7,3.5
			c-1.2,2.3-2.2,4.6-3.5,6.9l-3.8,6.7l-0.9,1.7l-1,1.6l-2.1,3.3l-2,3.3c-0.7,1.1-1.5,2.1-2.2,3.2l-4.4,6.3l-4.7,6.1l27.1,21.5
			l5.5-7.1l5.2-7.4c0.8-1.2,1.8-2.4,2.5-3.7l2.4-3.8l2.4-3.8l1.2-1.9l1.1-2l4.4-7.9c1.4-2.6,2.7-5.4,4-8c0.7-1.3,1.3-2.7,2-4
			l1.8-4.1l1.8-4.1l0.9-2.1C484.9,348.5,485.2,347.8,485.5,347.1z"/>
		<path class="st2" d="M500.2,220.3l-34.2,5c1.4,10.2,2.1,20.5,2.2,30.9c-0.1,10.3-0.9,20.6-2.3,30.9l34.2,5
			c1.7-11.9,2.6-23.9,2.6-35.9C502.8,244.2,501.9,232.2,500.2,220.3z"/>
		<path class="st2" d="M450,103.4l-27.2,21.4c12.8,16.2,23.1,34.3,30.7,53.4l32.2-12.6C476.9,143.3,464.9,122.2,450,103.4z"/>
	</g>
	<g>
		<g>
			<path class="st1" d="M299.6,299.6c-6.1,6-12.6,10.3-19.9,13.4c-7.3,3-15.4,4.7-23.7,4.7c-8.2,0-16.4-1.7-23.7-4.7
				c-7.3-3.1-13.9-7.4-19.9-13.4L-32.2,544.2c18.7,18.7,39.4,35.7,61.6,50.6c22.2,14.9,45.9,27.6,70.7,37.8
				c49.4,20.5,102.7,31,155.9,31c53.2,0,106.5-10.5,155.9-31c24.7-10.2,48.4-22.9,70.7-37.8c22.2-14.9,42.9-31.9,61.6-50.6
				L299.6,299.6z"/>
		</g>
		<path class="st2" d="M164.9,485.5l12.7-32.2c-0.6-0.2-1.2-0.4-1.8-0.7l-1.8-0.8l-3.5-1.5l-3.5-1.5c-1.2-0.5-2.3-1.1-3.5-1.7
			c-2.3-1.2-4.6-2.2-6.9-3.5l-6.7-3.8l-1.7-0.9l-1.6-1l-3.3-2.1l-3.3-2c-1.1-0.7-2.1-1.5-3.2-2.2l-6.3-4.4l-6.1-4.7l-21.5,27.1
			l7.1,5.5l7.4,5.2c1.2,0.8,2.4,1.8,3.7,2.5l3.8,2.4l3.8,2.4l1.9,1.2l2,1.1l7.9,4.4c2.6,1.4,5.4,2.7,8,4c1.3,0.7,2.7,1.3,4,2
			l4.1,1.8l4.1,1.8l2.1,0.9C163.5,484.9,164.2,485.2,164.9,485.5z"/>
		<path class="st2" d="M291.7,500.2l-5-34.2c-10.2,1.4-20.5,2.1-30.9,2.2c-10.3-0.1-20.6-0.9-30.9-2.3l-5,34.2
			c11.9,1.7,23.9,2.6,35.9,2.6C267.8,502.8,279.8,501.9,291.7,500.2z"/>
		<path class="st2" d="M408.6,450l-21.4-27.2c-16.2,12.8-34.3,23.1-53.4,30.7l12.6,32.2C368.7,476.9,389.8,464.9,408.6,450z"/>
	</g>
</g>
<polyline class="st3" points="417.5,9.9 417.5,90.1 342.9,96.2 "/>
</svg>
