<?xml version="1.0" encoding="utf-8"?>
<!-- Generator: Adobe Illustrator 26.0.3, SVG Export Plug-In . SVG Version: 6.00 Build 0)  -->
<svg version="1.1" id="Layer_1" xmlns="http://www.w3.org/2000/svg" xmlns:xlink="http://www.w3.org/1999/xlink" x="0px" y="0px"
	 viewBox="0 0 6750 4300" style="enable-background:new 0 0 6750 4300;" xml:space="preserve">
<g id="Layer_2_1_">
	<path style="fill:#191919;" d="M6313.5,4039.3H434.2c-14.8,0-26.7-12-26.7-26.7V245.9c0-14.8,12-26.7,26.7-26.7h5879.3
		c14.8,0,26.7,12,26.7,26.7v3766.8C6340.2,4027.4,6328.3,4039.3,6313.5,4039.3z"/>
	<g id="Layer_2_2_">
		<rect x="549.6" y="392.7" style="fill:none;stroke:#FFFFFF;stroke-width:10;stroke-miterlimit:10;" width="5658.8" height="3544.2"/>
		<polyline style="fill:none;stroke:#FFFFFF;stroke-width:10;stroke-miterlimit:10;" points="549.6,1018.8 1467.3,1018.8 1467.3,3319.8 549.6,3319.8 		"/>
		<polyline style="fill:none;stroke:#FFFFFF;stroke-width:10;stroke-miterlimit:10;" points="549.6,1641.2 843.7,1641.2 843.7,2688.3 549.6,2688.3 		"/>
		<polyline style="fill:none;stroke:#FFFFFF;stroke-width:10;stroke-miterlimit:10;" points="6208.4,1018.8 5290.7,1018.8 5290.7,3319.8 6208.4,3319.8 		"/>
		<polyline style="fill:none;stroke:#FFFFFF;stroke-width:10;stroke-miterlimit:10;" points="6208.4,1641.2 5915,1641.2 5915,2688.3 6208.4,2688.3 		"/>
		<polyline style="fill:none;stroke:#FFFFFF;stroke-width:10;stroke-miterlimit:10;" points="6208.4,1988.2 6316.3,1988.2 6316.3,2341.3 6208.4,2341.3 		"/>
		<polyline style="fill:none;stroke:#FFFFFF;stroke-width:10;stroke-miterlimit:10;" points="549.6,2341.3 441.7,2341.3 441.7,1988.2 549.6,1988.2 		"/>
		<ellipse style="fill:none;stroke:#FFFFFF;stroke-width:10;stroke-miterlimit:10;" cx="3374.9" cy="2149.9" rx="503.5" ry="511.8"/>
		<path style="fill:none;stroke:#FFFFFF;stroke-width:10;stroke-miterlimit:10;" d="M5290.7,2562.5c-124.6-93-205.6-243.3-205.6-412.6s81-319.6,205.6-412.6"/>
		<path style="fill:none;stroke:#FFFFFF;stroke-width:10;stroke-miterlimit:10;" d="M1467.3,2577.7c124.6-93,205.6-243.3,205.6-412.6s-81-319.6-205.6-412.6"/>
		<line style="fill:none;stroke:#FFFFFF;stroke-width:10;stroke-miterlimit:10;" x1="3374.9" y1="392.7" x2="3374.9" y2="3936.8"/>
	</g>
</g>
</svg>
