<?xml version="1.0" encoding="utf-8"?>
<!-- Generator: Adobe Illustrator 26.0.3, SVG Export Plug-In . SVG Version: 6.00 Build 0)  -->
<svg version="1.1" id="Layer_1" xmlns="http://www.w3.org/2000/svg" xmlns:xlink="http://www.w3.org/1999/xlink" x="0px" y="0px"
	 viewBox="0 0 4600 6750" style="enable-background:new 0 0 4600 6750;" xml:space="preserve">
<style type="text/css">
	.st0{fill:#191919;}
	.st1{fill:none;stroke:#FFFFFF;stroke-width:10;stroke-miterlimit:10;}
</style>
<g id="Layer_2_1_">
	<path class="st0" d="M4143,538.6v5672.8c0,14.3-11.6,25.8-25.8,25.8H482.8c-14.3,0-25.8-11.6-25.8-25.8V538.6
		c0-14.3,11.6-25.8,25.8-25.8h3634.5C4131.4,512.8,4143,524.3,4143,538.6z"/>
	<g id="Layer_2_2_">
		<rect x="590.2" y="640" class="st1" width="3419.7" height="5460"/>
		<polyline class="st1" points="1194.3,6099.9 1194.3,5214.5 3414.4,5214.5 3414.4,6099.9 		"/>
		<polyline class="st1" points="1794.8,6099.9 1794.8,5816.2 2805.1,5816.2 2805.1,6099.9 		"/>
		<polyline class="st1" points="1194.3,640 1194.3,1525.4 3414.4,1525.4 3414.4,640 		"/>
		<polyline class="st1" points="1794.8,640 1794.8,923.1 2805.1,923.1 2805.1,640 		"/>
		<polyline class="st1" points="2129.6,640 2129.6,535.9 2470.3,535.9 2470.3,640 		"/>
		<polyline class="st1" points="2470.3,6099.9 2470.3,6204.1 2129.6,6204.1 2129.6,6099.9 		"/>
		<ellipse class="st1" cx="2285.6" cy="3374" rx="493.8" ry="485.8"/>
		<path class="st1" d="M2683.7,1525.4c-89.7,120.2-234.8,198.4-398.1,198.4c-163.4,0-308.4-78.2-398.1-198.4"/>
		<path class="st1" d="M2698.4,5214.5c-89.7-120.2-234.8-198.4-398.1-198.4c-163.4,0-308.4,78.2-398.1,198.4"/>
		<line class="st1" x1="590.2" y1="3374" x2="4009.8" y2="3374"/>
	</g>
</g>
</svg>
