<?xml version="1.0" encoding="utf-8"?>
<!-- Generator: Adobe Illustrator 26.0.2, SVG Export Plug-In . SVG Version: 6.00 Build 0)  -->
<svg version="1.1" id="Layer_1" xmlns="http://www.w3.org/2000/svg" xmlns:xlink="http://www.w3.org/1999/xlink" x="0px" y="0px"
	 viewBox="0 0 4600 7100" style="enable-background:new 0 0 4600 7100;" xml:space="preserve">

<g id="Layer_2_1_">
	<path style="fill:#2886C6;" d="M4539.7,103.1v6893.9c0,17.4-14.1,31.4-31.4,31.4H91.7c-17.4,0-31.4-14.1-31.4-31.4V103.1
		c0-17.4,14.1-31.4,31.4-31.4h4416.8C4525.6,71.7,4539.7,85.7,4539.7,103.1z"/>
	<g id="Layer_2_2_">
		<rect x="222.1" y="226.3" style="fill:none;stroke:#FFFFFF;stroke-width:9.9902;stroke-miterlimit:9.9902;" width="4155.7" height="6635.2"/>
		<polyline style="fill:none;stroke:#FFFFFF;stroke-width:9.9902;stroke-miterlimit:9.9902;" points="956.3,6861.4 956.3,5785.4 3654.3,5785.4 3654.3,6861.4 		"/>
		<polyline style="fill:none;stroke:#FFFFFF;stroke-width:9.9902;stroke-miterlimit:9.9902;" points="1686.1,6861.4 1686.1,6516.6 2913.8,6516.6 2913.8,6861.4 		"/>
		<polyline style="fill:none;stroke:#FFFFFF;stroke-width:9.9902;stroke-miterlimit:9.9902;" points="956.3,226.3 956.3,1302.3 3654.3,1302.3 3654.3,226.3 		"/>
		<polyline style="fill:none;stroke:#FFFFFF;stroke-width:9.9902;stroke-miterlimit:9.9902;" points="1686.1,226.3 1686.1,570.3 2913.8,570.3 2913.8,226.3 		"/>
		<polyline style="fill:none;stroke:#FFFFFF;stroke-width:9.9902;stroke-miterlimit:9.9902;" points="2092.9,226.3 2092.9,99.8 2507,99.8 2507,226.3 		"/>
		<polyline style="fill:none;stroke:#FFFFFF;stroke-width:9.9902;stroke-miterlimit:9.9902;" points="2507,6861.4 2507,6988 2092.9,6988 2092.9,6861.4 		"/>
		<ellipse style="fill:none;stroke:#FFFFFF;stroke-width:9.9902;stroke-miterlimit:9.9902;" cx="2282.5" cy="3548.8" rx="600.1" ry="590.3"/>
		<path style="fill:none;stroke:#FFFFFF;stroke-width:9.9902;stroke-miterlimit:9.9902;" d="M2766.2,1302.3c-109,146.1-285.3,241.1-483.8,241.1c-198.6,0-374.7-95-483.8-241.1"/>
		<path style="fill:none;stroke:#FFFFFF;stroke-width:9.9902;stroke-miterlimit:9.9902;" d="M2784.1,5785.4c-109-146.1-285.3-241.1-483.8-241.1c-198.6,0-374.7,95-483.8,241.1"/>
		<line style="fill:none;stroke:#FFFFFF;stroke-width:9.9902;stroke-miterlimit:9.9902;" x1="222.1" y1="3548.8" x2="4377.9" y2="3548.8"/>
	</g>
</g>
</svg>
